Hole In One 2010 DvDRip XviD Ac3 Feel-Free

Eric, a highly-gifted golfer but radically-undisciplined college undergrad, finds his world drastically altered after losing a golf bet to a pair of sadistic plastic surgeons. Eric's bad-boy attitude lifestyle comes to a screeching halt as he loses his money, his girlfriend, his dignity and his golf swing. Eric and his best friend Tyler decide to take on the doctors, in a final golf match of "Best-Ball" to get his life back and become the man he should have been all along.

Genre:Comedy
Language:English  http://www.imdb.com/title/tt1263800/
Source:Speeds-RG asttas Ipteline.Thanks
 
http://www.starshare.ro/bitbucket/Hole%20In%20One%202010%20DvDRip%20XviD%20Ac3%20Feel-Free.avi_thumbs_%5B2010.09.19_02.10.57%5D.jpg

General
Complete name : Hole In One 2010 DvDRip XviD Ac3 Feel-Free
Format : AVI
Format/Info : Audio Video Interleave
File size : 1.21 GiB
Duration : 1h 35mn
Overall bit rate : 1 802 Kbps
Video #0
Muxing mode : Packed bitstream
Codec ID : XVID
Codec ID/Hint : XviD
Duration : 1h 35mn
Bit rate : 1 408 Kbps
Width : 720 pixels
Height : 304 pixels
Display aspect ratio : 2.35:1
Frame rate : 25.000 fps
Resolution : 24 bits
Colorimetry : 4:2:0
Scan type : Progressive
Bits/(Pixel*Frame) : 0.257
Stream size : 966 MiB (78%)
Writing library : XviD 1.2.1 (UTC 2008-12-04)
Audio #1
ID : 1
Format : AC-3
Format/Info : Audio Coding 3
Codec ID : 2000
Duration : 1h 35mn
Bit rate mode : Constant
Bit rate : 384 Kbps
Channel(s) : 6 channels
Channel positions : Front: L C R, Surround: L R, LFE
Sampling rate : 48.0 KHz
Stream size : 263 MiB (21%)
Alignment : Split accross interleaves
Interleave, duration : 40 ms (1.00 video frame)
Interleave, preload duration : 500 ms
